<svg width="838" height="203" viewBox="0 0 838 203" fill="none" xmlns="http://www.w3.org/2000/svg">
<g clip-path="url(#clip0_1434_7311)">
<path d="M252.694 152.138L292.461 50.7286H313.597L353.506 152.138H335.768L326.751 128.63H278.709L269.692 152.138H252.694ZM284.033 114.583H321.285L309.905 84.8673C309.611 83.9846 309.165 82.7508 308.576 81.1753C307.988 79.5998 307.371 77.8725 306.726 76.0028C306.08 74.1331 305.444 72.2349 304.808 70.3083C304.163 68.3816 303.603 66.6353 303.11 65.0598H302.227C301.639 66.9295 300.898 69.1504 300.006 71.7129C299.123 74.2755 298.26 76.7431 297.415 79.1063C296.58 81.4695 295.868 83.3962 295.27 84.8673L284.033 114.583Z" fill="black"/>
<path d="M360.605 152.138V74.3799H373.323L374.652 85.4652H375.686C377.556 82.6084 379.777 80.2452 382.339 78.366C384.902 76.4963 387.73 75.0632 390.843 74.0762C393.947 73.0891 397.373 72.5956 401.112 72.5956C406.038 72.5956 410.375 73.4593 414.124 75.1866C417.873 76.9139 420.796 79.6947 422.922 83.5385C425.039 87.3823 426.102 92.5549 426.102 99.0656V152.138H410.726V101.429C410.726 98.4772 410.356 96.0095 409.616 94.0354C408.876 92.0708 407.813 90.4859 406.437 89.309C405.06 88.1226 403.428 87.2874 401.558 86.7939C399.689 86.3004 397.61 86.0536 395.351 86.0536C391.802 86.0536 388.575 86.9173 385.671 88.6446C382.766 90.372 380.422 92.7637 378.647 95.8102C376.873 98.8663 375.99 102.463 375.99 106.601V152.129H360.615L360.605 152.138Z" fill="black"/>
<path d="M542.583 153.913C537.164 153.913 532.38 153.325 528.242 152.138C524.104 150.952 520.65 149.329 517.897 147.26C515.135 145.191 513.038 142.705 511.614 139.8C510.181 136.896 509.469 133.669 509.469 130.12C509.469 129.626 509.488 129.18 509.545 128.791C509.593 128.402 509.621 128.051 509.621 127.756H524.845V129.379C524.845 132.435 525.68 134.875 527.36 136.697C529.03 138.519 531.279 139.8 534.089 140.541C536.898 141.281 539.973 141.651 543.333 141.651C546.284 141.651 549.027 141.281 551.533 140.541C554.048 139.8 556.117 138.69 557.74 137.219C559.363 135.738 560.179 133.869 560.179 131.6C560.179 128.649 559.145 126.38 557.076 124.805C555.007 123.229 552.292 121.976 548.942 121.037C545.592 120.097 542.089 119.091 538.445 118.009C535.19 117.127 531.963 116.159 528.764 115.124C525.556 114.09 522.681 112.732 520.118 111.062C517.556 109.392 515.487 107.266 513.911 104.703C512.336 102.141 511.548 98.9422 511.548 95.0984C511.548 91.4539 512.336 88.246 513.911 85.4936C515.487 82.7318 517.679 80.416 520.488 78.5463C523.298 76.6766 526.648 75.2435 530.539 74.2565C534.43 73.2694 538.692 72.7759 543.323 72.7759C547.955 72.7759 552.435 73.2979 556.183 74.3324C559.932 75.3669 563.102 76.819 565.722 78.6887C568.332 80.5584 570.325 82.8077 571.71 85.4177C573.087 88.0277 573.779 90.8085 573.779 93.7697C573.779 94.3581 573.751 94.975 573.703 95.6204C573.656 96.2658 573.628 96.6834 573.628 96.8732H558.547V95.5444C558.547 93.5798 558.006 91.7956 556.924 90.2201C555.842 88.6446 554.133 87.3633 551.827 86.3763C549.511 85.3892 546.436 84.8957 542.592 84.8957C540.03 84.8957 537.762 85.114 535.788 85.5601C533.813 86.0061 532.191 86.623 530.909 87.4108C529.628 88.1985 528.669 89.1381 528.024 90.2201C527.379 91.302 527.065 92.5358 527.065 93.912C527.065 96.1803 527.882 97.9267 529.505 99.1605C531.127 100.394 533.272 101.429 535.939 102.264C538.606 103.099 541.454 104.01 544.51 104.997C548.059 105.984 551.656 106.99 555.301 108.025C558.945 109.059 562.324 110.369 565.427 111.945C568.531 113.52 571.046 115.694 572.963 118.446C574.89 121.208 575.848 124.9 575.848 129.531C575.848 133.774 575.013 137.466 573.333 140.617C571.654 143.777 569.319 146.311 566.31 148.228C563.302 150.145 559.78 151.578 555.737 152.518C551.694 153.458 547.309 153.923 542.583 153.923V153.913Z" fill="black"/>
<path d="M618.415 153.913C610.632 153.913 604.122 152.461 598.902 149.557C593.672 146.653 589.762 142.192 587.152 136.175C584.542 130.167 583.232 122.527 583.232 113.264C583.232 104.001 584.561 96.3891 587.228 90.4288C589.885 84.4686 593.853 80.0079 599.129 77.0467C604.397 74.0951 610.879 72.6145 618.567 72.6145C623.891 72.6145 628.523 73.2789 632.461 74.6076C636.4 75.9363 639.75 77.9104 642.512 80.5204C645.274 83.1304 647.315 86.3573 648.643 90.2011C649.972 94.0449 650.636 98.4296 650.636 103.355H635.119C635.119 99.2174 634.53 95.8197 633.344 93.1527C632.158 90.4953 630.335 88.4927 627.877 87.164C625.41 85.8353 622.211 85.1709 618.273 85.1709C614.135 85.1709 610.632 86.1295 607.776 88.0561C604.919 89.9733 602.746 92.887 601.274 96.7782C599.794 100.669 599.054 105.776 599.054 112.077V114.593C599.054 120.61 599.765 125.602 601.198 129.598C602.622 133.584 604.796 136.545 607.7 138.462C610.604 140.389 614.324 141.347 618.861 141.347C622.8 141.347 625.979 140.635 628.399 139.202C630.81 137.769 632.632 135.7 633.866 132.995C635.1 130.29 635.717 127.007 635.717 123.163H650.646C650.646 127.794 649.982 131.989 648.653 135.729C647.324 139.478 645.303 142.705 642.588 145.409C639.874 148.124 636.504 150.212 632.461 151.692C628.418 153.173 623.739 153.913 618.415 153.913Z" fill="black"/>
<path d="M738.835 152.138V50.7286H754.21V152.138H738.835Z" fill="black"/>
<path d="M803.344 153.913C795.363 153.913 788.681 152.461 783.309 149.557C777.937 146.653 773.875 142.192 771.113 136.175C768.352 130.167 766.975 122.527 766.975 113.264C766.975 104.001 768.352 96.2373 771.113 90.277C773.875 84.3167 777.966 79.8845 783.385 76.9708C788.804 74.0666 795.552 72.6145 803.639 72.6145C811.032 72.6145 817.21 74.0191 822.193 76.8284C827.166 79.6377 830.944 83.8991 833.506 89.6126C836.069 95.3261 837.35 102.52 837.35 111.195V117.108H782.797C782.996 122.631 783.831 127.234 785.312 130.926C786.792 134.618 789.032 137.333 792.041 139.06C795.049 140.787 798.865 141.651 803.496 141.651C806.353 141.651 808.915 141.281 811.184 140.541C813.452 139.8 815.369 138.718 816.945 137.285C818.52 135.862 819.754 134.134 820.637 132.113C821.519 130.091 821.965 127.804 821.965 125.241H837.046C837.046 129.873 836.259 133.963 834.683 137.513C833.108 141.063 830.811 144.043 827.812 146.453C824.803 148.874 821.235 150.715 817.097 151.996C812.959 153.277 808.374 153.923 803.344 153.923V153.913ZM783.091 105.861H821.235C821.235 102.017 820.817 98.7903 819.982 96.1803C819.147 93.5703 817.932 91.4254 816.356 89.7455C814.781 88.0751 812.902 86.8603 810.738 86.12C808.574 85.3797 806.106 85.0096 803.344 85.0096C799.206 85.0096 795.676 85.7499 792.771 87.2304C789.867 88.711 787.618 90.9983 786.043 94.1018C784.467 97.2053 783.48 101.125 783.091 105.851V105.861Z" fill="black"/>
<path d="M719.587 83.6715C717.31 80.1219 713.931 77.3695 709.451 75.4619C704.962 73.5352 699.362 72.5767 692.662 72.5767C686.445 72.5767 680.969 73.4213 676.233 75.0917C671.497 76.7621 667.824 79.2108 665.205 82.4092C662.595 85.6266 661.285 89.5368 661.285 94.1779V95.9621C661.285 96.4557 661.333 96.9492 661.427 97.4332H676.224V95.2219C676.224 93.4471 676.689 91.8051 677.628 90.2581C678.568 88.7396 680.191 87.4488 682.507 86.4143C684.822 85.3798 688.059 84.8578 692.197 84.8578C696.335 84.8578 699.514 85.3988 701.735 86.4808C703.956 87.5627 705.484 89.0908 706.319 91.0649C707.154 93.0389 707.582 95.3073 707.582 97.8698V105.567C700.283 105.567 693.545 105.966 687.385 106.763C681.216 107.541 675.92 108.927 671.478 110.901C667.037 112.875 663.582 115.589 661.124 119.025C658.656 122.48 657.422 126.874 657.422 132.198C657.422 136.735 658.21 140.408 659.786 143.227C661.361 146.036 663.411 148.228 665.926 149.804C668.441 151.389 671.127 152.48 673.984 153.069C676.841 153.657 679.508 153.951 681.975 153.951C686.018 153.951 689.672 153.486 692.928 152.556C696.183 151.617 699.068 150.278 701.583 148.56C704.089 146.843 706.243 144.84 708.018 142.572V152.186H722.966V96.5506C722.966 91.5204 721.827 87.2305 719.568 83.681L719.587 83.6715ZM707.601 121.701C707.601 124.558 707.06 127.197 705.978 129.617C704.886 132.037 703.406 134.106 701.536 135.833C699.666 137.57 697.417 138.889 694.807 139.829C692.197 140.768 689.359 141.234 686.303 141.234C683.646 141.234 681.32 140.835 679.346 140.038C677.372 139.259 675.892 138.102 674.905 136.574C673.917 135.045 673.424 133.138 673.424 130.879C673.424 127.121 674.848 124.197 677.714 122.062C680.58 119.946 684.576 118.493 689.701 117.706C694.826 116.908 700.796 116.529 707.61 116.529V121.711L707.601 121.701Z" fill="black"/>
<path d="M438.364 166.546V180.924H453.872L458.855 166.546H438.364Z" fill="black"/>
<path d="M478.159 154.748L506.138 74.3799H490.45L471.003 136.08L470.158 133.897L448.576 74.3799H431.92L462.85 154.995L458.855 166.546H474.078L478.159 154.748Z" fill="black"/>
<path d="M474.078 166.546H458.855L453.872 180.934H463.723C466.941 180.934 469.807 178.893 470.861 175.856L474.087 166.555L474.078 166.546Z" fill="black"/>
<path d="M143.787 104.675L116.32 152.252H171.633C173.664 152.252 175.543 151.171 176.568 149.405L202.393 104.675H143.787Z" fill="#0066FF"/>
<path d="M202.393 98.3254L176.568 53.5949C175.552 51.8296 173.673 50.7477 171.633 50.7477H116.32L143.787 98.3254H202.393Z" fill="#0066FF"/>
<path d="M61.3869 50.7476H116.32L88.6636 2.84726C87.6481 1.08196 85.7689 0 83.7284 0H32.0791L61.3774 50.7476H61.3869Z" fill="#0066FF"/>
<path d="M26.5839 3.16992L0.759261 47.9003C-0.256261 49.6656 -0.256261 51.8296 0.759261 53.5949L28.4156 101.495L55.8822 53.9175L26.5839 3.16992Z" fill="#0066FF"/>
<path d="M55.8917 149.073L28.4251 101.495L0.759261 149.405C-0.256261 151.17 -0.256261 153.334 0.759261 155.1L26.5839 199.83L55.8822 149.082L55.8917 149.073Z" fill="#0066FF"/>
<path d="M32.0791 203H83.7284C85.7594 203 87.6386 201.918 88.6636 200.153L116.32 152.252H61.3869L32.0886 203H32.0791Z" fill="#0066FF"/>
</g>
<defs>
<clipPath id="clip0_1434_7311">
<rect width="837.35" height="203" fill="white"/>
</clipPath>
</defs>
</svg>
